<svg width="48" height="40" viewBox="0 0 48 40" fill="none" xmlns="http://www.w3.org/2000/svg">
<path fill-rule="evenodd" clip-rule="evenodd" d="M7.95779 5.15097C5.9355 5.15097 4.26183 5.87753 3.08825 7.25633V0H0.82504V21.284H3.08825V19.2009C4.26183 20.5797 5.93368 21.3063 7.95779 21.3063C12.2542 21.3063 14.6196 18.4372 14.6196 13.2286C14.6215 8.02005 12.2542 5.15097 7.95779 5.15097ZM12.3017 13.2286C12.3017 17.1532 10.785 19.1433 7.7917 19.1433C3.9041 19.1433 3.08825 15.9416 3.08825 13.2565C3.08825 9.42486 4.75827 7.31393 7.7917 7.31393C10.785 7.31393 12.3017 9.30408 12.3017 13.2286ZM28.1094 10.2167C30.0039 9.26711 31.0023 7.70621 31.0023 5.68448C31.0023 4.10314 30.3343 2.68346 29.1187 1.6856C27.8521 0.645004 26.0452 0.0949728 23.8951 0.0949728C21.7451 0.0949728 19.9381 0.645004 18.6715 1.6856C17.4577 2.68346 16.7879 4.10314 16.7879 5.68448C16.7879 7.72851 17.7826 9.2987 19.6698 10.2464C17.3884 11.2257 16.2769 12.8962 16.2769 15.3379C16.2769 17.1218 16.9394 18.6381 18.1915 19.7214C19.5384 20.8865 21.4567 21.4756 23.8951 21.4756C29.513 21.4756 31.5134 18.3055 31.5134 15.3379C31.5134 12.8739 30.3982 11.1941 28.1094 10.2167ZM23.8951 11.4468C27.383 11.4468 29.0786 12.7383 29.0786 15.3955C29.0786 18.9781 25.1107 19.2569 23.8951 19.2569C19.0858 19.2569 18.7116 16.3005 18.7116 15.3955C18.7116 12.7383 20.4072 11.4468 23.8951 11.4468ZM19.2209 5.74208C19.2209 3.59585 20.9675 2.31368 23.8933 2.31368C26.819 2.31368 28.5657 3.59585 28.5657 5.74208C28.5657 7.3643 27.341 9.25782 23.8933 9.25782C20.4455 9.25782 19.2209 7.3643 19.2209 5.74208ZM1.94198 25.7345C3.32545 24.1327 5.35504 23.2872 7.81536 23.2872C12.5462 23.2872 15.6015 26.5558 15.6015 31.6157C15.6015 34.0035 14.9317 36.0494 13.665 37.5323C12.287 39.1471 10.2629 40 7.81536 40C2.9951 40 0 36.7872 0 31.6157C0 29.2391 0.671661 27.2062 1.94198 25.7345ZM7.81536 36.6125C11.3525 36.6125 11.8289 34.1002 11.8289 31.6418C11.8289 28.1112 10.6663 26.671 7.81536 26.671C4.94437 26.671 3.77444 28.1112 3.77444 31.6418C3.77444 36.0216 5.8168 36.6125 7.81536 36.6125ZM25.5761 23.3893C23.6797 23.3893 22.1466 24.0601 21.0113 25.385V23.3949H17.3117V39.8308H21.0095V30.2164C21.0095 28.3879 22.4696 26.9013 24.2656 26.9013C25.4501 26.9013 26.4102 27.364 26.9723 28.2114C27.352 28.7187 27.5436 29.4155 27.5436 30.2833V39.8308H31.2432V29.6924C31.2432 25.5095 29.3359 23.3893 25.5761 23.3893ZM40.6574 23.2871C42.8676 23.2871 44.7129 23.9988 45.996 25.3461C47.3046 26.7193 47.9963 28.728 48 31.1567C48 31.5086 47.8808 32.5277 47.8564 32.7371C47.8541 32.7566 47.8526 32.7691 47.8522 32.7733L47.8339 32.922H36.7351C37.038 35.5514 38.281 36.7276 40.7431 36.7276C42.185 36.7276 43.1907 36.3467 43.8149 35.5625L43.8642 35.5012H47.7445L47.6678 35.7242C46.3939 39.4425 42.7289 39.9981 40.6574 39.9981C35.8353 39.9981 32.9552 36.8633 32.9552 31.6138C32.9552 29.2427 33.6177 27.2098 34.8698 25.7381C36.2332 24.1345 38.2335 23.2871 40.6574 23.2871ZM40.6847 26.5576C38.4434 26.5576 37.2498 27.522 36.8391 29.6794H44.2438C43.9646 27.5499 42.8293 26.5576 40.6847 26.5576Z" fill="#1C1C1C"/>
</svg>
